<svg xmlns="http://www.w3.org/2000/svg" xmlns:xlink="http://www.w3.org/1999/xlink" width="500" zoomAndPan="magnify" viewBox="0 0 375 374.999991" height="500" preserveAspectRatio="xMidYMid meet" version="1.0"><defs><filter x="0%" y="0%" width="100%" height="100%" id="757c22ead8"><feColorMatrix values="0 0 0 0 1 0 0 0 0 1 0 0 0 0 1 0 0 0 1 0" color-interpolation-filters="sRGB"/></filter><g/><clipPath id="0a6ab8c979"><path d="M 5.136719 19.183594 L 341.769531 19.183594 L 341.769531 355.816406 L 5.136719 355.816406 Z M 5.136719 19.183594 " clip-rule="nonzero"/></clipPath><clipPath id="aca6e12207"><path d="M 173.453125 19.183594 C 80.496094 19.183594 5.136719 94.542969 5.136719 187.5 C 5.136719 280.457031 80.496094 355.816406 173.453125 355.816406 C 266.410156 355.816406 341.769531 280.457031 341.769531 187.5 C 341.769531 94.542969 266.410156 19.183594 173.453125 19.183594 Z M 173.453125 19.183594 " clip-rule="nonzero"/></clipPath><clipPath id="02ca463aaa"><path d="M 245 101.296875 L 369.625 101.296875 L 369.625 197.921875 L 245 197.921875 Z M 245 101.296875 " clip-rule="nonzero"/></clipPath><mask id="c53cbae7dc"><g filter="url(#757c22ead8)"><rect x="-37.5" width="450" fill="#000000" y="-37.499999" height="449.999989" fill-opacity="0.2"/></g></mask><clipPath id="5f5f75bfa5"><path d="M 32 0.441406 L 40 0.441406 L 40 10 L 32 10 Z M 32 0.441406 " clip-rule="nonzero"/></clipPath><clipPath id="392f5ce37d"><rect x="0" width="65" y="0" height="13"/></clipPath></defs><g clip-path="url(#0a6ab8c979)"><g clip-path="url(#aca6e12207)"><path fill="#f0f2ff" d="M 5.136719 19.183594 L 341.769531 19.183594 L 341.769531 355.816406 L 5.136719 355.816406 Z M 5.136719 19.183594 " fill-opacity="1" fill-rule="nonzero"/></g></g><path fill="#16f4ba" d="M 366.707031 120.882812 C 365.867188 118.703125 364.710938 116.710938 363.148438 115.039062 C 359.105469 110.722656 352.308594 107.847656 346.71875 106.265625 C 338.066406 103.820312 328.886719 102.714844 319.914062 102.421875 C 308.734375 102.054688 297.496094 102.78125 286.472656 104.703125 C 275.5 106.613281 263.882812 109.515625 255.476562 117.300781 C 244.804688 127.191406 245.308594 143.394531 249.839844 156.324219 C 252.546875 164.046875 257.199219 170.855469 264.082031 175.402344 C 267.320312 177.542969 270.90625 179.023438 274.636719 180.054688 C 276.699219 184.894531 277.058594 190.035156 272.144531 192.753906 C 270.480469 193.671875 271.15625 196.570312 273.140625 196.425781 C 282.96875 195.722656 291.453125 190.066406 297.371094 182.339844 C 297.765625 181.828125 302.390625 182.054688 303.195312 181.988281 C 305.335938 181.800781 307.464844 181.558594 309.59375 181.273438 C 318.597656 180.058594 327.566406 179.402344 336.476562 177.476562 C 345.433594 175.539062 355 172.734375 360.402344 164.742188 C 365.15625 157.710938 367.898438 148.683594 368.511719 140.300781 C 368.945312 134.363281 369.03125 126.914062 366.707031 120.882812 " fill-opacity="1" fill-rule="nonzero"/><g clip-path="url(#02ca463aaa)"><path fill="#836fff" d="M 366.707031 120.882812 L 367.679688 120.507812 C 366.800781 118.226562 365.582031 116.113281 363.910156 114.324219 C 361.765625 112.039062 358.960938 110.1875 355.984375 108.691406 C 353.003906 107.199219 349.851562 106.066406 347.003906 105.261719 C 338.242188 102.785156 328.984375 101.671875 319.949219 101.375 C 318.082031 101.316406 316.214844 101.285156 314.34375 101.285156 C 304.953125 101.285156 295.546875 102.058594 286.292969 103.671875 C 280.78125 104.632812 275.074219 105.847656 269.65625 107.816406 C 264.238281 109.789062 259.101562 112.523438 254.765625 116.535156 C 251.5 119.558594 249.238281 123.164062 247.800781 127.054688 C 246.363281 130.949219 245.746094 135.128906 245.746094 139.347656 C 245.746094 145.257812 246.953125 151.246094 248.855469 156.667969 C 250.238281 160.617188 252.121094 164.339844 254.550781 167.667969 C 256.980469 170.996094 259.957031 173.925781 263.503906 176.273438 C 266.859375 178.488281 270.546875 180.003906 274.355469 181.0625 L 274.636719 180.054688 L 273.675781 180.464844 C 274.507812 182.414062 275.027344 184.382812 275.023438 186.117188 C 275.023438 187.316406 274.785156 188.394531 274.261719 189.339844 C 273.734375 190.285156 272.917969 191.128906 271.636719 191.839844 C 271.136719 192.113281 270.75 192.53125 270.507812 192.988281 C 270.265625 193.445312 270.160156 193.945312 270.160156 194.429688 C 270.160156 195.160156 270.394531 195.878906 270.871094 196.464844 C 271.109375 196.757812 271.414062 197.015625 271.777344 197.195312 C 272.140625 197.375 272.5625 197.476562 273 197.476562 C 273.070312 197.476562 273.136719 197.476562 273.203125 197.472656 L 273.214844 197.46875 C 278.308594 197.105469 283.046875 195.457031 287.261719 192.910156 C 291.476562 190.367188 295.167969 186.933594 298.199219 182.976562 L 297.566406 182.492188 L 298.007812 183.15625 C 298.050781 183.125 298.121094 183.078125 298.199219 182.976562 L 297.566406 182.492188 L 298.007812 183.15625 L 297.734375 182.742188 L 297.929688 183.199219 C 297.941406 183.195312 297.964844 183.183594 298.007812 183.15625 L 297.734375 182.742188 L 297.929688 183.199219 L 297.882812 183.085938 L 297.925781 183.203125 L 297.929688 183.199219 L 297.882812 183.085938 L 297.925781 183.203125 C 297.929688 183.199219 298.070312 183.160156 298.257812 183.140625 C 298.542969 183.097656 298.953125 183.070312 299.402344 183.058594 C 299.847656 183.042969 300.34375 183.035156 300.820312 183.035156 C 301.460938 183.035156 302.074219 183.042969 302.542969 183.042969 C 302.691406 183.042969 302.832031 183.042969 302.953125 183.042969 C 303.074219 183.039062 303.175781 183.035156 303.28125 183.027344 L 303.285156 183.027344 C 305.441406 182.839844 307.59375 182.597656 309.734375 182.308594 C 318.695312 181.097656 327.691406 180.445312 336.699219 178.496094 C 341.203125 177.519531 345.90625 176.320312 350.210938 174.324219 C 352.363281 173.328125 354.417969 172.128906 356.289062 170.652344 C 358.164062 169.175781 359.851562 167.421875 361.269531 165.328125 C 366.144531 158.105469 368.921875 148.929688 369.554688 140.375 C 369.695312 138.460938 369.796875 136.382812 369.796875 134.238281 C 369.796875 129.671875 369.332031 124.800781 367.679688 120.507812 L 365.730469 121.257812 C 367.242188 125.171875 367.710938 129.816406 367.710938 134.238281 C 367.710938 136.316406 367.609375 138.34375 367.46875 140.222656 C 366.871094 148.4375 364.167969 157.320312 359.535156 164.15625 C 358.25 166.058594 356.71875 167.652344 354.996094 169.011719 C 352.417969 171.046875 349.40625 172.550781 346.199219 173.71875 C 342.992188 174.894531 339.59375 175.734375 336.257812 176.457031 C 327.441406 178.363281 318.5 179.019531 309.453125 180.238281 C 307.339844 180.523438 305.226562 180.761719 303.105469 180.945312 L 303.113281 180.945312 C 303.085938 180.949219 303.011719 180.949219 302.910156 180.953125 C 302.8125 180.953125 302.683594 180.957031 302.542969 180.957031 C 302.097656 180.957031 301.476562 180.949219 300.820312 180.949219 C 300.050781 180.949219 299.230469 180.957031 298.53125 181.011719 C 298.183594 181.039062 297.867188 181.074219 297.570312 181.136719 C 297.421875 181.171875 297.277344 181.210938 297.117188 181.277344 C 297.035156 181.3125 296.949219 181.355469 296.851562 181.417969 C 296.757812 181.480469 296.648438 181.566406 296.539062 181.707031 C 293.652344 185.476562 290.144531 188.730469 286.183594 191.121094 C 282.214844 193.515625 277.800781 195.046875 273.066406 195.386719 L 273.140625 196.425781 L 273.074219 195.386719 C 273.042969 195.386719 273.019531 195.386719 273 195.386719 C 272.871094 195.386719 272.785156 195.363281 272.707031 195.324219 C 272.589844 195.265625 272.480469 195.160156 272.390625 195 C 272.300781 194.839844 272.246094 194.628906 272.246094 194.429688 C 272.246094 194.25 272.289062 194.089844 272.355469 193.964844 C 272.421875 193.839844 272.503906 193.75 272.648438 193.667969 C 274.21875 192.800781 275.363281 191.664062 276.089844 190.355469 C 276.8125 189.046875 277.113281 187.59375 277.113281 186.117188 C 277.109375 183.976562 276.5 181.769531 275.597656 179.644531 C 275.472656 179.355469 275.21875 179.132812 274.914062 179.050781 C 271.265625 178.039062 267.785156 176.597656 264.65625 174.53125 C 261.328125 172.332031 258.535156 169.582031 256.238281 166.4375 C 253.945312 163.296875 252.148438 159.753906 250.824219 155.976562 C 248.992188 150.746094 247.832031 144.972656 247.832031 139.347656 C 247.832031 135.332031 248.421875 131.398438 249.757812 127.78125 C 251.097656 124.160156 253.175781 120.859375 256.1875 118.070312 C 260.261719 114.296875 265.132812 111.6875 270.367188 109.78125 C 275.605469 107.875 281.195312 106.683594 286.652344 105.730469 C 295.78125 104.136719 305.066406 103.375 314.34375 103.375 C 316.191406 103.375 318.035156 103.402344 319.878906 103.464844 C 328.789062 103.753906 337.886719 104.855469 346.433594 107.273438 C 349.175781 108.046875 352.21875 109.140625 355.046875 110.5625 C 357.875 111.980469 360.488281 113.722656 362.386719 115.753906 C 363.839844 117.308594 364.929688 119.175781 365.730469 121.257812 L 366.707031 120.882812 " fill-opacity="1" fill-rule="nonzero"/></g><path fill="#16f4ba" d="M 337.894531 109.300781 C 339.320312 109.195312 340.523438 109.414062 341.839844 110.070312 " fill-opacity="1" fill-rule="nonzero"/><path fill="#836fff" d="M 337.976562 110.34375 C 338.183594 110.328125 338.382812 110.320312 338.570312 110.320312 C 339.566406 110.324219 340.390625 110.515625 341.371094 111.003906 C 341.886719 111.261719 342.515625 111.054688 342.773438 110.539062 C 343.03125 110.023438 342.824219 109.394531 342.308594 109.136719 C 341.085938 108.519531 339.863281 108.226562 338.570312 108.230469 C 338.320312 108.230469 338.070312 108.242188 337.816406 108.261719 C 337.238281 108.304688 336.808594 108.808594 336.855469 109.382812 C 336.898438 109.957031 337.402344 110.390625 337.976562 110.34375 " fill-opacity="1" fill-rule="nonzero"/><path fill="#16f4ba" d="M 343.59375 111.164062 C 351.917969 112.589844 359.148438 119.054688 361.78125 127.050781 " fill-opacity="1" fill-rule="nonzero"/><path fill="#836fff" d="M 343.417969 112.195312 C 347.367188 112.871094 351.089844 114.75 354.132812 117.425781 C 357.175781 120.105469 359.535156 123.570312 360.785156 127.378906 C 360.96875 127.925781 361.558594 128.226562 362.105469 128.042969 C 362.652344 127.863281 362.953125 127.273438 362.773438 126.726562 C 361.394531 122.535156 358.824219 118.769531 355.511719 115.859375 C 352.199219 112.949219 348.144531 110.882812 343.769531 110.136719 C 343.199219 110.039062 342.660156 110.421875 342.5625 110.988281 C 342.464844 111.558594 342.847656 112.097656 343.417969 112.195312 " fill-opacity="1" fill-rule="nonzero"/><path fill="#836fff" d="M 361.722656 129.570312 C 361.722656 130.011719 361.722656 130.339844 361.722656 130.667969 C 361.722656 131.242188 362.1875 131.710938 362.765625 131.710938 C 363.34375 131.710938 363.808594 131.242188 363.808594 130.667969 C 363.808594 130.339844 363.808594 130.011719 363.808594 129.570312 C 363.808594 128.996094 363.34375 128.527344 362.765625 128.527344 C 362.1875 128.527344 361.722656 128.996094 361.722656 129.570312 " fill-opacity="1" fill-rule="nonzero"/><path fill="#16f4ba" d="M 308.753906 176.902344 C 309.957031 176.902344 311.054688 176.683594 312.257812 176.574219 " fill-opacity="1" fill-rule="nonzero"/><path fill="#836fff" d="M 308.753906 177.945312 C 309.417969 177.945312 310.039062 177.886719 310.628906 177.816406 C 311.21875 177.746094 311.785156 177.664062 312.351562 177.613281 C 312.925781 177.5625 313.351562 177.054688 313.296875 176.480469 C 313.246094 175.90625 312.738281 175.480469 312.164062 175.535156 C 311.527344 175.59375 310.941406 175.675781 310.382812 175.742188 C 309.824219 175.808594 309.292969 175.855469 308.753906 175.855469 C 308.175781 175.855469 307.707031 176.324219 307.707031 176.902344 C 307.707031 177.476562 308.175781 177.945312 308.753906 177.945312 " fill-opacity="1" fill-rule="nonzero"/><path fill="#16f4ba" d="M 316.859375 176.132812 C 319.269531 175.585938 321.789062 175.695312 324.199219 175.367188 C 328.910156 174.929688 333.621094 173.945312 338.113281 172.191406 " fill-opacity="1" fill-rule="nonzero"/><path fill="#836fff" d="M 317.089844 177.152344 C 318.203125 176.898438 319.382812 176.792969 320.597656 176.710938 C 321.816406 176.628906 323.074219 176.574219 324.34375 176.402344 L 324.199219 175.367188 L 324.296875 176.40625 C 329.085938 175.960938 333.894531 174.957031 338.496094 173.164062 C 339.03125 172.953125 339.296875 172.347656 339.085938 171.8125 C 338.878906 171.273438 338.273438 171.007812 337.734375 171.21875 C 333.347656 172.929688 328.734375 173.898438 324.105469 174.328125 L 324.058594 174.332031 C 322.917969 174.488281 321.710938 174.542969 320.460938 174.628906 C 319.214844 174.710938 317.925781 174.820312 316.628906 175.117188 C 316.066406 175.242188 315.710938 175.804688 315.839844 176.367188 C 315.96875 176.929688 316.527344 177.28125 317.089844 177.152344 " fill-opacity="1" fill-rule="nonzero"/><g fill="#0c003a" fill-opacity="1"><g transform="translate(30.676502, 231.277606)"><g><path d="M 71.234375 18.953125 C 69.128906 18.953125 62.132812 13.628906 50.25 2.984375 C 45.457031 4.710938 40.753906 5.578125 36.140625 5.578125 C 26.960938 5.578125 18.882812 2.054688 11.90625 -4.984375 C 5.03125 -11.929688 1.59375 -19.820312 1.59375 -28.65625 C 1.59375 -39.039062 5.617188 -47.835938 13.671875 -55.046875 C 21.492188 -62.066406 30.757812 -65.578125 41.46875 -65.578125 C 52.914062 -65.578125 61.570312 -61.445312 67.4375 -53.1875 C 72.363281 -46.238281 74.828125 -37.320312 74.828125 -26.4375 C 74.828125 -17.40625 70.488281 -9.644531 61.8125 -3.15625 C 63.539062 -1.601562 66.148438 0.71875 69.640625 3.8125 L 74.578125 7.703125 C 76.503906 9.492188 77.46875 11.222656 77.46875 12.890625 C 77.46875 14.484375 76.878906 15.867188 75.703125 17.046875 C 74.484375 18.316406 72.992188 18.953125 71.234375 18.953125 Z M 41.46875 -53.625 C 33.988281 -53.625 27.566406 -51.226562 22.203125 -46.4375 C 16.691406 -41.59375 13.9375 -35.664062 13.9375 -28.65625 C 13.9375 -23.050781 16.222656 -17.929688 20.796875 -13.296875 C 25.367188 -8.671875 30.484375 -6.359375 36.140625 -6.359375 C 36.890625 -6.359375 37.695312 -6.40625 38.5625 -6.5 C 34.320312 -10.5625 32.203125 -13.863281 32.203125 -16.40625 C 32.203125 -18.132812 32.863281 -19.578125 34.1875 -20.734375 C 35.425781 -21.796875 36.859375 -22.328125 38.484375 -22.328125 C 40.441406 -22.328125 42.128906 -21.445312 43.546875 -19.6875 C 46.078125 -16.519531 48.90625 -13.664062 52.03125 -11.125 C 58.976562 -15.363281 62.453125 -20.46875 62.453125 -26.4375 C 62.453125 -34.40625 60.804688 -40.785156 57.515625 -45.578125 C 53.828125 -50.941406 48.476562 -53.625 41.46875 -53.625 Z M 41.46875 -53.625 "/></g></g></g><g fill="#0c003a" fill-opacity="1"><g transform="translate(108.358153, 231.277606)"><g><path d="M 49.953125 -7.484375 C 47.835938 -4.628906 45.296875 -2.25 42.328125 -0.34375 C 38.691406 1.957031 34.957031 3.109375 31.125 3.109375 C 23.757812 3.109375 18.289062 1.695312 14.71875 -1.125 C 7.15625 -7.09375 3.375 -17.46875 3.375 -32.25 C 3.375 -33.65625 3.445312 -35.757812 3.59375 -38.5625 C 3.738281 -41.363281 3.8125 -43.472656 3.8125 -44.890625 C 3.8125 -46.015625 3.835938 -47.691406 3.890625 -49.921875 C 3.953125 -52.160156 3.984375 -53.84375 3.984375 -54.96875 C 3.984375 -57.28125 4.398438 -59.457031 5.234375 -61.5 C 6.359375 -64.21875 7.929688 -65.578125 9.953125 -65.578125 C 11.535156 -65.578125 12.9375 -65.054688 14.15625 -64.015625 C 15.476562 -62.921875 16.140625 -61.503906 16.140625 -59.765625 C 16.140625 -58.128906 16.117188 -55.644531 16.078125 -52.3125 C 16.035156 -48.976562 16.015625 -46.472656 16.015625 -44.796875 C 16.015625 -43.410156 15.941406 -41.316406 15.796875 -38.515625 C 15.648438 -35.722656 15.578125 -33.632812 15.578125 -32.25 C 15.578125 -27.769531 16.097656 -23.613281 17.140625 -19.78125 C 18.347656 -15.1875 20.125 -11.984375 22.46875 -10.171875 C 23.675781 -9.222656 26.5625 -8.71875 31.125 -8.65625 C 38.738281 -8.539062 43.875 -15.035156 46.53125 -28.140625 C 47.914062 -34.910156 48.609375 -44.429688 48.609375 -56.703125 C 48.609375 -58.316406 49.082031 -59.875 50.03125 -61.375 C 51.332031 -63.363281 53.179688 -64.359375 55.578125 -64.359375 C 57.535156 -64.359375 59.003906 -63.640625 59.984375 -62.203125 C 60.734375 -61.128906 61.109375 -59.941406 61.109375 -58.640625 C 61.109375 -47.242188 60.578125 -38.359375 59.515625 -31.984375 C 57.898438 -22.140625 54.710938 -13.972656 49.953125 -7.484375 Z M 49.953125 -7.484375 "/></g></g></g><g fill="#0c003a" fill-opacity="1"><g transform="translate(173.662673, 231.277606)"><g><path d="M 41.421875 -51.15625 C 39.921875 -51.15625 35.804688 -51.5625 29.078125 -52.375 C 28.679688 -47.0625 28.484375 -40.003906 28.484375 -31.203125 L 28.4375 -11.765625 C 32.269531 -11.859375 36.179688 -11.90625 40.171875 -11.90625 C 41.898438 -11.90625 43.332031 -11.328125 44.46875 -10.171875 C 45.613281 -9.015625 46.1875 -7.628906 46.1875 -6.015625 C 46.1875 -4.398438 45.613281 -3.019531 44.46875 -1.875 C 43.332031 -0.738281 41.898438 -0.171875 40.171875 -0.171875 C 38.546875 -0.171875 36.117188 -0.132812 32.890625 -0.0625 C 29.660156 0.0078125 27.238281 0.046875 25.625 0.046875 C 23.71875 0.046875 20.859375 0.296875 17.046875 0.796875 C 13.242188 1.304688 10.390625 1.5625 8.484375 1.5625 C 6.753906 1.5625 5.316406 0.992188 4.171875 -0.140625 C 3.035156 -1.285156 2.46875 -2.664062 2.46875 -4.28125 C 2.46875 -5.894531 3.035156 -7.28125 4.171875 -8.4375 C 5.316406 -9.59375 6.753906 -10.171875 8.484375 -10.171875 C 10.441406 -10.171875 13.023438 -10.390625 16.234375 -10.828125 C 16.171875 -14.222656 16.140625 -20.742188 16.140625 -30.390625 C 16.140625 -38.234375 16.429688 -45.71875 17.015625 -52.84375 L 7.625 -52.59375 C 5.882812 -52.59375 4.429688 -53.15625 3.265625 -54.28125 C 2.097656 -55.40625 1.515625 -56.800781 1.515625 -58.46875 C 1.515625 -60.175781 2.09375 -61.5625 3.25 -62.625 C 4.3125 -63.601562 5.625 -64.164062 7.1875 -64.3125 C 9.726562 -64.539062 14.140625 -64.65625 20.421875 -64.65625 C 26.078125 -64.65625 33.363281 -64.050781 42.28125 -62.84375 C 45.832031 -62.351562 47.609375 -60.363281 47.609375 -56.875 C 47.609375 -55.03125 46.890625 -53.570312 45.453125 -52.5 C 44.265625 -51.601562 42.921875 -51.15625 41.421875 -51.15625 Z M 41.421875 -51.15625 "/></g></g></g><g fill="#0c003a" fill-opacity="1"><g transform="translate(222.089284, 231.277606)"><g><path d="M 55.140625 -51.71875 C 53.554688 -50.738281 51.609375 -49.484375 49.296875 -47.953125 C 44.421875 -44.347656 38.648438 -38.144531 31.984375 -29.34375 C 26.878906 -22.476562 21.769531 -15.597656 16.65625 -8.703125 L 16.484375 -8.484375 C 18.597656 -8.535156 23.675781 -8.738281 31.71875 -9.09375 C 38.039062 -9.375 43.078125 -9.515625 46.828125 -9.515625 C 50.953125 -9.515625 53.753906 -9.359375 55.234375 -9.046875 C 58.691406 -8.296875 60.476562 -6.632812 60.59375 -4.0625 C 60.675781 -2.164062 60.015625 -0.664062 58.609375 0.4375 C 57.390625 1.382812 55.929688 1.859375 54.234375 1.859375 C 53.398438 1.859375 52.144531 1.804688 50.46875 1.703125 C 48.789062 1.609375 47.535156 1.5625 46.703125 1.5625 C 42.316406 1.5625 35.726562 1.664062 26.9375 1.875 C 18.15625 2.09375 11.570312 2.203125 7.1875 2.203125 C 5.3125 2.203125 3.765625 1.726562 2.546875 0.78125 C 1.191406 -0.257812 0.515625 -1.71875 0.515625 -3.59375 C 0.515625 -5.664062 1.425781 -8.132812 3.25 -11 C 3.820312 -11.882812 5.453125 -14.0625 8.140625 -17.53125 C 12.867188 -23.84375 17.613281 -30.144531 22.375 -36.4375 C 28.03125 -43.707031 33.328125 -49.597656 38.265625 -54.109375 C 33.765625 -53.785156 30.328125 -53.625 27.953125 -53.625 L 10.46875 -53.625 C 10.15625 -53.625 9.695312 -53.601562 9.09375 -53.5625 C 8.488281 -53.519531 8.023438 -53.5 7.703125 -53.5 C 6.003906 -53.5 4.5625 -53.988281 3.375 -54.96875 C 2.050781 -56.0625 1.390625 -57.53125 1.390625 -59.375 C 1.390625 -63.332031 4.316406 -65.3125 10.171875 -65.3125 C 12.160156 -65.3125 15.128906 -65.1875 19.078125 -64.9375 C 23.035156 -64.695312 26.007812 -64.578125 28 -64.578125 C 30.21875 -64.578125 33.539062 -64.632812 37.96875 -64.75 C 42.40625 -64.863281 45.734375 -64.921875 47.953125 -64.921875 C 56.554688 -64.921875 60.859375 -63.046875 60.859375 -59.296875 C 60.859375 -56.898438 58.953125 -54.375 55.140625 -51.71875 Z M 55.140625 -51.71875 "/></g></g></g><g fill="#0c003a" fill-opacity="1"><g transform="translate(276.662682, 168.372294)"><g><path d="M 29.109375 -35.953125 C 28.054688 -35.953125 25.164062 -36.238281 20.4375 -36.8125 C 20.15625 -33.070312 20.015625 -28.113281 20.015625 -21.9375 L 19.984375 -8.28125 C 22.679688 -8.332031 25.429688 -8.359375 28.234375 -8.359375 C 29.441406 -8.359375 30.445312 -7.953125 31.25 -7.140625 C 32.050781 -6.335938 32.453125 -5.367188 32.453125 -4.234375 C 32.453125 -3.097656 32.050781 -2.128906 31.25 -1.328125 C 30.445312 -0.523438 29.441406 -0.125 28.234375 -0.125 C 27.097656 -0.125 25.394531 -0.0976562 23.125 -0.046875 C 20.851562 0.00390625 19.144531 0.03125 18 0.03125 C 16.664062 0.03125 14.660156 0.207031 11.984375 0.5625 C 9.304688 0.914062 7.300781 1.09375 5.96875 1.09375 C 4.75 1.09375 3.738281 0.691406 2.9375 -0.109375 C 2.132812 -0.910156 1.734375 -1.878906 1.734375 -3.015625 C 1.734375 -4.148438 2.132812 -5.117188 2.9375 -5.921875 C 3.738281 -6.734375 4.75 -7.140625 5.96875 -7.140625 C 7.34375 -7.140625 9.15625 -7.296875 11.40625 -7.609375 C 11.363281 -9.992188 11.34375 -14.578125 11.34375 -21.359375 C 11.34375 -26.867188 11.546875 -32.128906 11.953125 -37.140625 L 5.359375 -36.953125 C 4.140625 -36.953125 3.117188 -37.347656 2.296875 -38.140625 C 1.472656 -38.929688 1.0625 -39.914062 1.0625 -41.09375 C 1.0625 -42.289062 1.46875 -43.265625 2.28125 -44.015625 C 3.03125 -44.703125 3.953125 -45.097656 5.046875 -45.203125 C 6.828125 -45.359375 9.929688 -45.4375 14.359375 -45.4375 C 18.328125 -45.4375 23.445312 -45.015625 29.71875 -44.171875 C 32.207031 -43.828125 33.453125 -42.425781 33.453125 -39.96875 C 33.453125 -38.664062 32.945312 -37.640625 31.9375 -36.890625 C 31.101562 -36.265625 30.160156 -35.953125 29.109375 -35.953125 Z M 29.109375 -35.953125 "/></g></g></g><g fill="#0c003a" fill-opacity="1"><g transform="translate(310.703258, 168.372294)"><g><path d="M 39.421875 -36.46875 C 37.835938 -36.46875 35.375 -36.582031 32.03125 -36.8125 C 28.800781 -37.03125 26.335938 -37.128906 24.640625 -37.109375 C 24.722656 -34.796875 24.992188 -30.679688 25.453125 -24.765625 C 25.878906 -19.523438 26.09375 -15.382812 26.09375 -12.34375 C 26.09375 -11.65625 26.164062 -10.628906 26.3125 -9.265625 C 26.457031 -7.910156 26.53125 -6.890625 26.53125 -6.203125 C 26.53125 -4.679688 26.203125 -3.3125 25.546875 -2.09375 C 24.710938 -0.53125 23.53125 0.25 22 0.25 C 20.875 0.25 19.890625 -0.109375 19.046875 -0.828125 C 18.085938 -1.609375 17.609375 -2.597656 17.609375 -3.796875 C 17.609375 -4.085938 17.660156 -4.519531 17.765625 -5.09375 C 17.867188 -5.675781 17.921875 -6.117188 17.921875 -6.421875 C 17.921875 -7.347656 17.851562 -8.753906 17.71875 -10.640625 C 17.582031 -12.523438 17.515625 -13.945312 17.515625 -14.90625 C 17.515625 -17.625 17.300781 -21.304688 16.875 -25.953125 C 16.394531 -31.285156 16.113281 -34.960938 16.03125 -36.984375 L 14.453125 -36.984375 C 9.929688 -36.984375 6.34375 -37.3125 3.6875 -37.96875 C 1.425781 -38.507812 0.296875 -39.835938 0.296875 -41.953125 C 0.296875 -42.984375 0.664062 -43.914062 1.40625 -44.75 C 2.25 -45.738281 3.363281 -46.179688 4.75 -46.078125 C 5.457031 -46.035156 7.066406 -45.863281 9.578125 -45.5625 C 11.585938 -45.34375 13.210938 -45.234375 14.453125 -45.234375 C 15.679688 -45.234375 17.53125 -45.253906 20 -45.296875 C 22.46875 -45.335938 24.316406 -45.359375 25.546875 -45.359375 C 27.085938 -45.359375 29.398438 -45.25 32.484375 -45.03125 C 35.566406 -44.820312 37.878906 -44.71875 39.421875 -44.71875 C 40.640625 -44.71875 41.660156 -44.320312 42.484375 -43.53125 C 43.304688 -42.738281 43.71875 -41.765625 43.71875 -40.609375 C 43.71875 -39.453125 43.304688 -38.472656 42.484375 -37.671875 C 41.660156 -36.867188 40.640625 -36.46875 39.421875 -36.46875 Z M 39.421875 -36.46875 "/></g></g></g><g mask="url(#c53cbae7dc)"><g transform="matrix(1, 0, 0, 1, 278, 109)"><g clip-path="url(#392f5ce37d)"><g fill="#0c003a" fill-opacity="1"><g transform="translate(0.296246, 9.156751)"><g><path d="M 4.0625 -8.09375 C 4.894531 -8.09375 5.523438 -7.898438 5.953125 -7.515625 C 6.390625 -7.140625 6.609375 -6.65625 6.609375 -6.0625 C 6.609375 -5.582031 6.472656 -5.164062 6.203125 -4.8125 C 5.941406 -4.46875 5.570312 -4.226562 5.09375 -4.09375 C 5.5 -3.988281 5.796875 -3.816406 5.984375 -3.578125 C 6.179688 -3.347656 6.3125 -2.859375 6.375 -2.109375 C 6.445312 -1.359375 6.597656 -0.65625 6.828125 0 L 5.625 0 C 5.507812 -0.269531 5.40625 -0.84375 5.3125 -1.71875 C 5.21875 -2.59375 5.054688 -3.132812 4.828125 -3.34375 C 4.609375 -3.550781 4.140625 -3.65625 3.421875 -3.65625 L 2.078125 -3.65625 L 2.078125 0 L 0.96875 0 L 0.96875 -8.09375 Z M 3.859375 -4.609375 C 4.472656 -4.609375 4.890625 -4.722656 5.109375 -4.953125 C 5.328125 -5.179688 5.4375 -5.476562 5.4375 -5.84375 C 5.4375 -6.257812 5.3125 -6.578125 5.0625 -6.796875 C 4.8125 -7.023438 4.410156 -7.140625 3.859375 -7.140625 L 2.046875 -7.140625 L 2.046875 -4.609375 Z M 3.859375 -4.609375 "/></g></g></g><g fill="#0c003a" fill-opacity="1"><g transform="translate(7.764084, 9.156751)"><g><path d="M 2.046875 -8.078125 L 2.046875 -4.796875 C 2.222656 -5.097656 2.46875 -5.328125 2.78125 -5.484375 C 3.101562 -5.640625 3.46875 -5.71875 3.875 -5.71875 C 4.425781 -5.71875 4.890625 -5.570312 5.265625 -5.28125 C 5.648438 -5 5.84375 -4.472656 5.84375 -3.703125 L 5.84375 0 L 4.765625 0 L 4.765625 -3.40625 C 4.765625 -3.945312 4.660156 -4.332031 4.453125 -4.5625 C 4.253906 -4.800781 3.953125 -4.921875 3.546875 -4.921875 C 3.171875 -4.921875 2.828125 -4.789062 2.515625 -4.53125 C 2.203125 -4.28125 2.046875 -3.816406 2.046875 -3.140625 L 2.046875 0 L 0.984375 0 L 0.984375 -8.078125 Z M 2.046875 -8.078125 "/></g></g></g><g fill="#0c003a" fill-opacity="1"><g transform="translate(14.604935, 9.156751)"><g><path d="M 5.28125 -1.40625 C 5.28125 -1.0625 5.285156 -0.800781 5.296875 -0.625 C 5.316406 -0.445312 5.335938 -0.238281 5.359375 0 L 4.40625 0 C 4.375 -0.125 4.347656 -0.25 4.328125 -0.375 C 4.316406 -0.507812 4.3125 -0.664062 4.3125 -0.84375 C 4.144531 -0.519531 3.921875 -0.269531 3.640625 -0.09375 C 3.359375 0.0820312 3 0.171875 2.5625 0.171875 C 1.957031 0.171875 1.476562 0.0195312 1.125 -0.28125 C 0.769531 -0.582031 0.59375 -0.984375 0.59375 -1.484375 C 0.59375 -2.066406 0.820312 -2.546875 1.28125 -2.921875 C 1.75 -3.304688 2.46875 -3.5 3.4375 -3.5 C 3.820312 -3.5 4.109375 -3.488281 4.296875 -3.46875 L 4.296875 -3.9375 C 4.296875 -4.382812 4.179688 -4.6875 3.953125 -4.84375 C 3.734375 -5 3.4375 -5.078125 3.0625 -5.078125 C 2.738281 -5.078125 2.476562 -4.992188 2.28125 -4.828125 C 2.09375 -4.671875 1.992188 -4.4375 1.984375 -4.125 L 0.9375 -4.125 C 0.96875 -4.695312 1.171875 -5.117188 1.546875 -5.390625 C 1.929688 -5.660156 2.460938 -5.796875 3.140625 -5.796875 C 3.753906 -5.796875 4.269531 -5.664062 4.6875 -5.40625 C 5.113281 -5.144531 5.328125 -4.722656 5.328125 -4.140625 Z M 4.265625 -2.15625 L 4.296875 -2.734375 C 4.234375 -2.742188 4.148438 -2.75 4.046875 -2.75 C 3.953125 -2.757812 3.832031 -2.765625 3.6875 -2.765625 C 2.332031 -2.765625 1.65625 -2.390625 1.65625 -1.640625 C 1.65625 -1.347656 1.753906 -1.109375 1.953125 -0.921875 C 2.148438 -0.742188 2.441406 -0.65625 2.828125 -0.65625 C 3.273438 -0.65625 3.625 -0.785156 3.875 -1.046875 C 4.125 -1.316406 4.253906 -1.6875 4.265625 -2.15625 Z M 4.265625 -2.15625 "/></g></g></g><g fill="#0c003a" fill-opacity="1"><g transform="translate(20.83, 9.156751)"><g><path d="M 4.53125 -5.625 L 4.53125 -4.734375 L 1.4375 -0.8125 L 4.53125 -0.8125 L 4.53125 0 L 0.34375 0 L 0.34375 -1.09375 L 3.34375 -4.828125 L 0.5 -4.828125 L 0.5 -5.625 Z M 4.53125 -5.625 "/></g></g></g><g fill="#0c003a" fill-opacity="1"><g transform="translate(25.801091, 9.156751)"><g><path d="M 5.671875 -2.625 L 1.625 -2.625 L 1.625 -2.53125 C 1.625 -1.925781 1.765625 -1.453125 2.046875 -1.109375 C 2.328125 -0.765625 2.722656 -0.59375 3.234375 -0.59375 C 3.617188 -0.59375 3.925781 -0.691406 4.15625 -0.890625 C 4.382812 -1.085938 4.519531 -1.378906 4.5625 -1.765625 L 5.609375 -1.765625 C 5.566406 -1.179688 5.328125 -0.710938 4.890625 -0.359375 C 4.460938 -0.00390625 3.894531 0.171875 3.1875 0.171875 C 2.320312 0.171875 1.671875 -0.078125 1.234375 -0.578125 C 0.796875 -1.078125 0.578125 -1.800781 0.578125 -2.75 C 0.578125 -3.726562 0.804688 -4.472656 1.265625 -4.984375 C 1.734375 -5.503906 2.390625 -5.765625 3.234375 -5.765625 C 4.835938 -5.765625 5.648438 -4.863281 5.671875 -3.0625 Z M 4.59375 -3.359375 L 4.59375 -3.4375 C 4.59375 -3.9375 4.476562 -4.320312 4.25 -4.59375 C 4.019531 -4.875 3.671875 -5.015625 3.203125 -5.015625 C 2.753906 -5.015625 2.390625 -4.867188 2.109375 -4.578125 C 1.828125 -4.285156 1.679688 -3.878906 1.671875 -3.359375 Z M 4.59375 -3.359375 "/></g></g></g><g clip-path="url(#5f5f75bfa5)"><g fill="#0c003a" fill-opacity="1"><g transform="translate(32.026156, 9.156751)"><g><path d="M 5.859375 -5.90625 C 5.796875 -6.375 5.613281 -6.722656 5.3125 -6.953125 C 5.007812 -7.179688 4.609375 -7.296875 4.109375 -7.296875 C 3.347656 -7.296875 2.773438 -7.003906 2.390625 -6.421875 C 2.003906 -5.847656 1.8125 -5.03125 1.8125 -3.96875 C 1.8125 -2.914062 2.003906 -2.125 2.390625 -1.59375 C 2.785156 -1.0625 3.351562 -0.796875 4.09375 -0.796875 C 4.570312 -0.796875 4.957031 -0.910156 5.25 -1.140625 C 5.550781 -1.367188 5.734375 -1.695312 5.796875 -2.125 L 7.03125 -2.125 C 6.957031 -1.445312 6.644531 -0.898438 6.09375 -0.484375 C 5.550781 -0.078125 4.851562 0.125 4 0.125 C 2.925781 0.125 2.09375 -0.234375 1.5 -0.953125 C 0.90625 -1.671875 0.609375 -2.671875 0.609375 -3.953125 C 0.609375 -5.253906 0.914062 -6.285156 1.53125 -7.046875 C 2.15625 -7.816406 3.03125 -8.203125 4.15625 -8.203125 C 4.945312 -8.203125 5.609375 -8.007812 6.140625 -7.625 C 6.679688 -7.25 6.988281 -6.675781 7.0625 -5.90625 Z M 5.859375 -5.90625 "/></g></g></g></g><g fill="#0c003a" fill-opacity="1"><g transform="translate(39.493994, 9.156751)"><g><path d="M 3.34375 0.1875 C 2.488281 0.1875 1.8125 -0.078125 1.3125 -0.609375 C 0.820312 -1.140625 0.578125 -1.851562 0.578125 -2.75 C 0.578125 -3.6875 0.828125 -4.421875 1.328125 -4.953125 C 1.835938 -5.492188 2.535156 -5.765625 3.421875 -5.765625 C 4.296875 -5.765625 4.972656 -5.503906 5.453125 -4.984375 C 5.941406 -4.460938 6.1875 -3.738281 6.1875 -2.8125 C 6.1875 -1.894531 5.921875 -1.164062 5.390625 -0.625 C 4.867188 -0.0820312 4.1875 0.1875 3.34375 0.1875 Z M 5.0625 -2.859375 C 5.0625 -3.523438 4.914062 -4.046875 4.625 -4.421875 C 4.34375 -4.804688 3.941406 -5 3.421875 -5 C 2.910156 -5 2.488281 -4.804688 2.15625 -4.421875 C 1.832031 -4.035156 1.671875 -3.503906 1.671875 -2.828125 C 1.671875 -2.160156 1.816406 -1.617188 2.109375 -1.203125 C 2.398438 -0.796875 2.8125 -0.59375 3.34375 -0.59375 C 3.863281 -0.59375 4.28125 -0.785156 4.59375 -1.171875 C 4.90625 -1.566406 5.0625 -2.128906 5.0625 -2.859375 Z M 5.0625 -2.859375 "/></g></g></g><g fill="#0c003a" fill-opacity="1"><g transform="translate(46.334845, 9.156751)"><g><path d="M 5.9375 -8.078125 L 5.9375 -0.875 C 5.945312 -0.675781 5.960938 -0.382812 5.984375 0 L 4.921875 0 C 4.921875 -0.226562 4.914062 -0.523438 4.90625 -0.890625 C 4.75 -0.578125 4.5 -0.332031 4.15625 -0.15625 C 3.820312 0.0195312 3.445312 0.109375 3.03125 0.109375 C 2.3125 0.109375 1.722656 -0.140625 1.265625 -0.640625 C 0.816406 -1.140625 0.59375 -1.84375 0.59375 -2.75 C 0.59375 -3.695312 0.828125 -4.441406 1.296875 -4.984375 C 1.765625 -5.535156 2.378906 -5.8125 3.140625 -5.8125 C 3.523438 -5.8125 3.863281 -5.734375 4.15625 -5.578125 C 4.457031 -5.429688 4.703125 -5.191406 4.890625 -4.859375 L 4.890625 -8.078125 Z M 4.921875 -2.90625 C 4.910156 -3.625 4.75 -4.15625 4.4375 -4.5 C 4.132812 -4.851562 3.738281 -5.03125 3.25 -5.03125 C 2.757812 -5.03125 2.378906 -4.84375 2.109375 -4.46875 C 1.847656 -4.09375 1.71875 -3.53125 1.71875 -2.78125 C 1.71875 -1.34375 2.234375 -0.625 3.265625 -0.625 C 3.796875 -0.625 4.203125 -0.8125 4.484375 -1.1875 C 4.773438 -1.570312 4.921875 -2.144531 4.921875 -2.90625 Z M 4.921875 -2.90625 "/></g></g></g><g fill="#0c003a" fill-opacity="1"><g transform="translate(53.175696, 9.156751)"><g><path d="M 5.671875 -2.625 L 1.625 -2.625 L 1.625 -2.53125 C 1.625 -1.925781 1.765625 -1.453125 2.046875 -1.109375 C 2.328125 -0.765625 2.722656 -0.59375 3.234375 -0.59375 C 3.617188 -0.59375 3.925781 -0.691406 4.15625 -0.890625 C 4.382812 -1.085938 4.519531 -1.378906 4.5625 -1.765625 L 5.609375 -1.765625 C 5.566406 -1.179688 5.328125 -0.710938 4.890625 -0.359375 C 4.460938 -0.00390625 3.894531 0.171875 3.1875 0.171875 C 2.320312 0.171875 1.671875 -0.078125 1.234375 -0.578125 C 0.796875 -1.078125 0.578125 -1.800781 0.578125 -2.75 C 0.578125 -3.726562 0.804688 -4.472656 1.265625 -4.984375 C 1.734375 -5.503906 2.390625 -5.765625 3.234375 -5.765625 C 4.835938 -5.765625 5.648438 -4.863281 5.671875 -3.0625 Z M 4.59375 -3.359375 L 4.59375 -3.4375 C 4.59375 -3.9375 4.476562 -4.320312 4.25 -4.59375 C 4.019531 -4.875 3.671875 -5.015625 3.203125 -5.015625 C 2.753906 -5.015625 2.390625 -4.867188 2.109375 -4.578125 C 1.828125 -4.285156 1.679688 -3.878906 1.671875 -3.359375 Z M 4.59375 -3.359375 "/></g></g></g><g fill="#0c003a" fill-opacity="1"><g transform="translate(59.400761, 9.156751)"><g><path d="M 4.140625 -5.671875 L 4.140625 -4.640625 C 4.035156 -4.671875 3.878906 -4.6875 3.671875 -4.6875 C 3.109375 -4.6875 2.707031 -4.546875 2.46875 -4.265625 C 2.226562 -3.992188 2.109375 -3.582031 2.109375 -3.03125 L 2.109375 0 L 1.046875 0 L 1.046875 -4.5625 C 1.023438 -5.0625 1.003906 -5.414062 0.984375 -5.625 L 2.046875 -5.625 C 2.066406 -5.175781 2.078125 -4.8125 2.078125 -4.53125 C 2.171875 -4.914062 2.375 -5.203125 2.6875 -5.390625 C 3.007812 -5.585938 3.394531 -5.6875 3.84375 -5.6875 C 3.957031 -5.6875 4.054688 -5.679688 4.140625 -5.671875 Z M 4.140625 -5.671875 "/></g></g></g></g></g></g></svg>